<?xml version="1.0" encoding="UTF-8" standalone="no"?>
<!-- Uploaded to: SVG Repo, www.svgrepo.com, Generator: SVG Repo Mixer Tools -->

<svg
   fill="#000000"
   height="800px"
   width="800px"
   version="1.1"
   viewBox="0 0 432.996 432.996"
   enable-background="new 0 0 432.996 432.996"
   id="svg16"
   sodipodi:docname="empty.svg"
   inkscape:version="1.3.1 (9b9bdc1480, 2023-11-25, custom)"
   xmlns:inkscape="http://www.inkscape.org/namespaces/inkscape"
   xmlns:sodipodi="http://sodipodi.sourceforge.net/DTD/sodipodi-0.dtd"
   xmlns="http://www.w3.org/2000/svg"
   xmlns:svg="http://www.w3.org/2000/svg">
  <defs
     id="defs16" />
  <sodipodi:namedview
     id="namedview16"
     pagecolor="#ffffff"
     bordercolor="#666666"
     borderopacity="1.0"
     inkscape:showpageshadow="2"
     inkscape:pageopacity="0.0"
     inkscape:pagecheckerboard="0"
     inkscape:deskcolor="#d1d1d1"
     showgrid="false"
     showguides="true"
     inkscape:zoom="0.57098873"
     inkscape:cx="523.65307"
     inkscape:cy="504.38824"
     inkscape:window-width="1854"
     inkscape:window-height="1011"
     inkscape:window-x="0"
     inkscape:window-y="0"
     inkscape:window-maximized="1"
     inkscape:current-layer="g16" />
  <rect
     style="fill:#d3d3d3;stroke-width:2.15236;stroke-dashoffset:0.789921;fill-opacity:1"
     id="rect16"
     width="432.996"
     height="432.99606"
     x="0"
     y="-3.5013494e-05" />
  <g
     id="g16"
     transform="matrix(0.88985398,0,0,0.88985398,23.846392,23.846392)">
    <path
       d="M 425.496,135.998 H 329 v -72.5 c 0,-4.142 -3.358,-7.5 -7.5,-7.5 H 7.5 c -4.142,0 -7.5,3.358 -7.5,7.5 v 226 c 0,4.142 3.358,7.5 7.5,7.5 h 96.496 v 72.5 c 0,4.142 3.358,7.5 7.5,7.5 h 314 c 4.142,0 7.5,-3.358 7.5,-7.5 v -226 c 0,-4.142 -3.358,-7.5 -7.5,-7.5 z m -7.5,44.295 h -299 v -29.295 h 299 z M 314,70.998 v 29.295 H 15 V 70.998 Z m -299,211 V 115.293 h 299 v 20.705 H 111.496 c -4.142,0 -7.5,3.358 -7.5,7.5 v 138.5 z m 103.996,-86.705 h 90.622 V 361.998 H 118.996 Z M 224.618,361.998 V 195.293 h 193.378 v 166.705 z"
       id="path1"
       style="fill:#808080" />
    <path
       d="m 134.52,173.147 c 1.98,0 3.91,-0.8 5.31,-2.2 1.39,-1.39 2.19,-3.33 2.19,-5.3 0,-1.98 -0.8,-3.91 -2.19,-5.3 -1.4,-1.4 -3.33,-2.2 -5.31,-2.2 -1.97,0 -3.91,0.8 -5.3,2.2 -1.4,1.39 -2.2,3.32 -2.2,5.3 0,1.97 0.8,3.91 2.2,5.3 1.399,1.4 3.329,2.2 5.3,2.2 z"
       id="path2" />
    <path
       d="m 153.089,173.147 c 1.98,0 3.91,-0.8 5.31,-2.2 1.39,-1.39 2.19,-3.33 2.19,-5.3 0,-1.97 -0.8,-3.91 -2.19,-5.31 -1.4,-1.39 -3.33,-2.19 -5.31,-2.19 -1.97,0 -3.9,0.8 -5.3,2.19 -1.39,1.4 -2.19,3.34 -2.19,5.31 0,1.97 0.8,3.91 2.19,5.3 1.4,1.4 3.33,2.2 5.3,2.2 z"
       id="path3" />
    <path
       d="m 171.669,173.147 c 1.97,0 3.9,-0.8 5.3,-2.2 1.4,-1.39 2.2,-3.33 2.2,-5.3 0,-1.98 -0.8,-3.91 -2.2,-5.31 -1.4,-1.39 -3.33,-2.19 -5.3,-2.19 -1.98,0 -3.91,0.8 -5.31,2.19 -1.39,1.4 -2.19,3.34 -2.19,5.31 0,1.97 0.8,3.91 2.19,5.3 1.4,1.4 3.33,2.2 5.31,2.2 z"
       id="path4" />
    <path
       d="m 140.307,225.703 h 48 c 4.142,0 7.5,-3.358 7.5,-7.5 0,-4.142 -3.358,-7.5 -7.5,-7.5 h -48 c -4.142,0 -7.5,3.358 -7.5,7.5 0,4.142 3.358,7.5 7.5,7.5 z"
       id="path5" />
    <path
       d="m 188.307,237.703 h -48 c -4.142,0 -7.5,3.358 -7.5,7.5 0,4.142 3.358,7.5 7.5,7.5 h 48 c 4.142,0 7.5,-3.358 7.5,-7.5 0,-4.142 -3.358,-7.5 -7.5,-7.5 z"
       id="path6" />
    <path
       d="m 188.307,264.703 h -48 c -4.142,0 -7.5,3.358 -7.5,7.5 0,4.142 3.358,7.5 7.5,7.5 h 48 c 4.142,0 7.5,-3.358 7.5,-7.5 0,-4.142 -3.358,-7.5 -7.5,-7.5 z"
       id="path7" />
    <path
       d="M 357,210.703 H 244.307 c -4.142,0 -7.5,3.358 -7.5,7.5 0,4.142 3.358,7.5 7.5,7.5 H 357 c 4.142,0 7.5,-3.358 7.5,-7.5 0,-4.142 -3.358,-7.5 -7.5,-7.5 z"
       id="path8" />
    <path
       d="M 357,237.703 H 244.307 c -4.142,0 -7.5,3.358 -7.5,7.5 0,4.142 3.358,7.5 7.5,7.5 H 357 c 4.142,0 7.5,-3.358 7.5,-7.5 0,-4.142 -3.358,-7.5 -7.5,-7.5 z"
       id="path9" />
    <path
       d="M 357,264.703 H 244.307 c -4.142,0 -7.5,3.358 -7.5,7.5 0,4.142 3.358,7.5 7.5,7.5 H 357 c 4.142,0 7.5,-3.358 7.5,-7.5 0,-4.142 -3.358,-7.5 -7.5,-7.5 z"
       id="path10" />
    <path
       d="m 30.52,93.147 c 1.98,0 3.91,-0.8 5.31,-2.2 1.39,-1.4 2.19,-3.33 2.19,-5.3 0,-1.97 -0.8,-3.91 -2.19,-5.3 -1.4,-1.4 -3.33,-2.2 -5.31,-2.2 -1.97,0 -3.9,0.8 -5.3,2.2 -1.4,1.39 -2.2,3.32 -2.2,5.3 0,1.97 0.8,3.91 2.2,5.3 1.399,1.4 3.329,2.2 5.3,2.2 z"
       id="path11" />
    <path
       d="m 49.089,93.147 c 1.98,0 3.91,-0.8 5.31,-2.2 1.39,-1.39 2.19,-3.33 2.19,-5.3 0,-1.98 -0.8,-3.91 -2.19,-5.3 -1.4,-1.4 -3.33,-2.2 -5.31,-2.2 -1.97,0 -3.9,0.8 -5.3,2.2 -1.39,1.39 -2.19,3.32 -2.19,5.3 0,1.97 0.8,3.91 2.19,5.3 1.4,1.4 3.33,2.2 5.3,2.2 z"
       id="path12" />
    <path
       d="m 67.669,93.147 c 1.97,0 3.9,-0.8 5.3,-2.2 1.4,-1.4 2.2,-3.33 2.2,-5.3 0,-1.97 -0.8,-3.91 -2.2,-5.3 -1.39,-1.4 -3.33,-2.2 -5.3,-2.2 -1.98,0 -3.91,0.8 -5.31,2.2 -1.39,1.39 -2.19,3.32 -2.19,5.3 0,1.97 0.8,3.91 2.19,5.3 1.4,1.4 3.33,2.2 5.31,2.2 z"
       id="path13" />
    <path
       d="m 84.307,130.703 h -48 c -4.142,0 -7.5,3.358 -7.5,7.5 0,4.142 3.358,7.5 7.5,7.5 h 48 c 4.142,0 7.5,-3.358 7.5,-7.5 0,-4.142 -3.358,-7.5 -7.5,-7.5 z"
       id="path14" />
    <path
       d="m 84.307,157.703 h -48 c -4.142,0 -7.5,3.358 -7.5,7.5 0,4.142 3.358,7.5 7.5,7.5 h 48 c 4.142,0 7.5,-3.358 7.5,-7.5 0,-4.142 -3.358,-7.5 -7.5,-7.5 z"
       id="path15" />
    <path
       d="m 84.307,184.703 h -48 c -4.142,0 -7.5,3.358 -7.5,7.5 0,4.142 3.358,7.5 7.5,7.5 h 48 c 4.142,0 7.5,-3.358 7.5,-7.5 0,-4.142 -3.358,-7.5 -7.5,-7.5 z"
       id="path16" />
  </g>
</svg>
