<?xml version="1.0" encoding="UTF-8"?>
<!-- Svg Vector Icons : http://www.onlinewebfonts.com/icon -->
<!DOCTYPE svg PUBLIC "-//W3C//DTD SVG 1.1//EN" "http://www.w3.org/Graphics/SVG/1.1/DTD/svg11.dtd">
<svg version="1.1" xmlns="http://www.w3.org/2000/svg" xmlns:xlink="http://www.w3.org/1999/xlink" x="0px" y="0px" viewBox="0 0 256 256" enable-background="new 0 0 256 256" xml:space="preserve">
<metadata> Svg Vector Icons : http://www.onlinewebfonts.com/icon </metadata>
<g><g><path fill="#000000" d="M128,246c-65.1,0-118-53-118-118C10,62.9,62.9,10,128,10c65.1,0,118,52.9,118,118C246,193,193.1,246,128,246z M128,19.6C68.2,19.6,19.6,68.2,19.6,128c0,59.8,48.6,108.4,108.4,108.4S236.4,187.8,236.4,128C236.4,68.2,187.8,19.6,128,19.6z"/><path fill="#000000" d="M119.7,149h-31c-13.9,0-25.1-11.2-25.1-25.1v-0.4c0-13.8,11.3-25.1,25.1-25.1h31c2.6,0,4.8,2.1,4.8,4.8v41.1C124.5,146.9,122.4,149,119.7,149z M88.7,107.9c-8.6,0-15.6,7-15.6,15.6v0.4c0,8.6,7,15.6,15.6,15.6h26.2v-31.5H88.7z"/><path fill="#000000" d="M181.4,169.5c-0.5,0-1-0.1-1.5-0.2l-61.6-20.5c-2-0.7-3.3-2.5-3.3-4.5v-41.1c0-2.1,1.3-3.9,3.3-4.6l61.6-20.5c1.5-0.5,3.1-0.2,4.3,0.7c1.2,0.9,2,2.4,2,3.9v82.2c0,1.5-0.7,3-2,3.9C183.3,169.3,182.4,169.5,181.4,169.5z M124.5,140.8l52.1,17.4V89.3l-52.1,17.3V140.8z"/><path fill="#000000" d="M104.3,179.8H83.8c-1.5,0-3-0.7-3.9-2c-0.9-1.3-1.1-2.9-0.7-4.3l10.3-30.8c0.6-2,2.5-3.3,4.6-3.3h20.5c1.5,0,3,0.7,3.9,2c0.9,1.2,1.2,2.8,0.7,4.3l-10.3,30.8C108.2,178.5,106.4,179.8,104.3,179.8z M90.4,170.2h10.5l7.1-21.2H97.5L90.4,170.2z"/></g></g>
</svg>